<svg width="444" height="193" viewBox="0 0 444 193" fill="none" xmlns="http://www.w3.org/2000/svg">
<path d="M14.9307 149.011C19.9069 186.886 76.5808 194.504 98.6974 128.829C110.84 92.7726 116.667 37.8653 95.3799 21.0107C76.5737 6.1205 57.7816 23.6037 57.7816 35.5316C57.7816 47.4594 64.1478 56.0543 81.2806 59.379C105.332 64.0464 163.665 33.9434 194.628 16.311C214.257 5.13326 114.732 175.805 181.635 175.805C235.157 175.805 246.879 67.2212 246.879 14.9287V53.9093M246.602 178.039L246.879 53.9093M246.879 53.9093C252.684 25.4574 308.529 -9.9525 343.086 41.4687C363.895 72.432 340.045 145.14 360.227 166.981C380.408 188.821 427.129 175.805 429.065 148.838" stroke="#FDD3CF" stroke-width="29.8574" stroke-miterlimit="16" stroke-linecap="round" stroke-linejoin="round"/>
</svg>
