<svg width="50" height="50" viewBox="0 0 50 50" fill="none" xmlns="http://www.w3.org/2000/svg">
<path d="M33.6992 0C33.6992 0 38.1163 10.8062 19.1852 18.0648C8.89849 22.0077 0.997672 32.114 10.4312 47.7256C11.2125 40.7474 14.5625 25.3616 28.9671 21.8506C28.9671 21.8506 15.5601 26.8639 14.3758 49.5568C21.2649 50.524 37.4218 51.1739 42.2187 37.1529C48.553 18.628 33.6992 0 33.6992 0Z" fill="#75AA54"/>
<path d="M14.3821 49.4623C29.007 43.6256 39.6484 29.9523 41.1171 13.6297C38.1273 5.56479 33.6992 0 33.6992 0C33.6992 0 38.1163 10.8062 19.1852 18.0648C8.89849 22.0077 0.997672 32.114 10.4312 47.7256C11.2125 40.7474 14.5625 25.3616 28.9671 21.8506C28.9671 21.8506 15.5992 26.8515 14.3821 49.4623Z" fill="#BACD92"/>
<path d="M9.70056 14.4531C10.4557 14.4531 11.0678 13.8409 11.0678 13.0858C11.0678 12.3308 10.4557 11.7186 9.70056 11.7186C8.94546 11.7186 8.33334 12.3308 8.33334 13.0858C8.33334 13.8409 8.94546 14.4531 9.70056 14.4531Z" fill="#BACD92"/>
<path d="M13.9974 12.6952C14.5367 12.6952 14.974 12.258 14.974 11.7186C14.974 11.1793 14.5367 10.7421 13.9974 10.7421C13.4581 10.7421 13.0209 11.1793 13.0209 11.7186C13.0209 12.258 13.4581 12.6952 13.9974 12.6952Z" fill="#75AA54"/>
<path d="M13.1186 4.88272C14.4669 4.88272 15.5599 3.78968 15.5599 2.44136C15.5599 1.09303 14.4669 0 13.1186 0C11.7702 0 10.6772 1.09303 10.6772 2.44136C10.6772 3.78968 11.7702 4.88272 13.1186 4.88272Z" fill="#75AA54"/>
<path d="M20.638 8.789C21.0695 8.789 21.4193 8.43922 21.4193 8.00774C21.4193 7.57627 21.0695 7.22649 20.638 7.22649C20.2066 7.22649 19.8568 7.57627 19.8568 8.00774C19.8568 8.43922 20.2066 8.789 20.638 8.789Z" fill="#75AA54"/>
<path d="M27.1817 5.85927C28.4222 5.85927 29.4278 4.85367 29.4278 3.6132C29.4278 2.37273 28.4222 1.36713 27.1817 1.36713C25.9413 1.36713 24.9357 2.37273 24.9357 3.6132C24.9357 4.85367 25.9413 5.85927 27.1817 5.85927Z" fill="#BACD92"/>
</svg>
