<svg width="958" height="977" viewBox="0 0 958 977" fill="none" xmlns="http://www.w3.org/2000/svg">
<path d="M650.604 0C661.973 3.54335 672.167 7.51493 682.5 13.4297C685.841 15.3224 685.841 15.323 689.25 17.2539C694.372 20.2978 699.367 23.5544 704.324 26.8594C705.303 35.7427 705.303 35.7434 705.07 46.6318C704.993 50.3711 704.916 54.1103 704.837 57.9629C704.275 69.6632 703.189 80.9575 701.34 92.5176C704.219 93.6139 704.22 93.6139 707.157 94.7324C719.158 99.6801 730.836 105.234 742.562 110.797C744.914 111.909 747.267 113.021 749.69 114.166C755.461 116.894 761.23 119.627 766.997 122.361C758.958 130.939 751.695 134.459 740.696 138.775C737.519 140.064 734.341 141.353 731.067 142.681C728.151 143.854 725.235 145.027 722.23 146.236C715.689 148.895 710.354 151.442 704.324 155.19C700.343 167.049 700.21 179.539 699.404 191.936C699.234 194.41 699.064 196.884 698.889 199.434C698.521 204.775 698.158 210.118 697.799 215.46C696.843 229.677 695.853 243.892 694.857 258.106C694.655 260.995 694.453 263.883 694.245 266.858C692.281 294.571 689.936 322.246 687.536 349.924C684.207 388.444 681.683 426.92 680.448 465.57C700.297 438.014 719.744 410.21 738.917 382.181C746.026 371.792 753.153 361.417 760.282 351.043C761.66 349.036 763.038 347.029 764.458 344.962C771.899 334.139 779.391 323.355 786.955 312.618C796.532 298.987 805.809 285.17 814.935 271.232C818.57 265.823 822.347 260.503 826.312 255.331C834.278 244.748 840.023 237.034 838.81 223.459C837.868 218.586 836.789 213.738 835.639 208.909C834.428 203.111 833.218 197.312 832.041 191.506C830.831 185.614 829.54 179.74 828.247 173.866C826.685 164.144 826.686 164.143 829.67 155.19C846.412 163.069 863.155 170.948 880.405 179.065L883.39 167.128C887.264 160.805 891.324 154.593 895.514 148.475C897.702 145.259 899.891 142.043 902.146 138.729C903.835 136.283 905.525 133.835 907.265 131.314C924.496 139.774 941.443 148.457 958 158.175C953.701 185.991 946.71 213.046 939.649 240.257C937.692 247.802 935.752 255.352 933.815 262.903C923.549 302.77 923.549 302.77 917.997 322.142C917.318 324.522 916.638 326.903 915.938 329.356C914.661 333.804 913.365 338.246 912.046 342.682C907.819 357.378 904.053 372.596 904.28 387.975C909.113 396.794 909.113 396.795 916.777 403.457C927.12 413.784 935.528 423.251 943.078 435.726C905.817 451.756 905.817 451.756 886.374 456.617C892.683 475.543 913.393 488.672 928.155 501.383C917.575 507.043 906.599 511.103 895.327 515.187C891.696 516.518 888.064 517.848 884.322 519.22C874.436 522.274 874.436 522.274 862.498 522.274L868.28 527.87C876.268 535.881 883.953 544.153 891.597 552.491C893.92 555.023 896.244 557.554 898.638 560.162C904.28 567.04 904.28 567.041 907.265 575.994C898.441 578.993 889.61 581.972 880.778 584.947C878.266 585.801 875.753 586.655 873.165 587.535C870.761 588.343 868.356 589.151 865.879 589.983C863.66 590.734 861.441 591.484 859.154 592.257C853.545 593.901 853.545 593.9 847.576 593.9C850.045 597.333 852.538 600.749 855.037 604.159C857.438 607.448 857.438 607.449 859.887 610.805C865.374 617.954 865.374 617.954 872.198 624.188C874.414 626.319 876.63 628.451 878.913 630.646C882.098 633.491 882.098 633.491 885.348 636.394C892.142 650.357 887.073 662.878 883.39 677.464C882.449 681.229 881.508 684.995 880.539 688.875C877.742 699.859 874.83 710.811 871.89 721.758C868.53 734.266 865.214 746.785 861.893 759.303C861.205 761.892 860.516 764.481 859.807 767.149C852.97 792.928 846.36 818.763 839.774 844.606C831.048 878.845 822.303 913.076 813.069 947.182C812.355 949.842 811.64 952.502 810.903 955.243C806.16 972.556 806.16 972.556 802.81 975.906C798.516 976.195 794.208 976.275 789.905 976.273C785.702 976.282 785.701 976.283 781.413 976.292C776.741 976.279 776.74 976.279 771.974 976.266C767.052 976.269 767.052 976.27 762.031 976.273C750.946 976.278 739.861 976.261 728.775 976.245C720.866 976.244 712.956 976.245 705.046 976.247C687.97 976.249 670.894 976.238 653.817 976.222C629.128 976.197 604.438 976.19 579.748 976.187C539.695 976.18 499.64 976.16 459.587 976.132C420.669 976.104 381.751 976.083 342.833 976.07C340.436 976.07 338.039 976.069 335.569 976.068C323.544 976.064 311.518 976.06 299.492 976.057C199.661 976.026 99.8307 975.973 0 975.906C2.80272 970.699 5.61412 965.497 8.42871 960.297C9.99328 957.399 11.5579 954.501 13.1699 951.516C18.5722 941.892 24.5162 932.816 30.7422 923.714C37.0731 914.356 43.158 904.846 49.2432 895.327C56.731 883.634 64.2584 871.974 71.999 860.446C78.0367 851.447 83.9218 842.37 89.7188 833.214C101.407 814.766 113.324 796.468 125.237 778.165C135.621 762.211 145.98 746.241 156.31 730.251C165.762 715.619 175.251 701.012 184.777 686.429C186.796 683.339 188.814 680.249 190.894 677.065C194.869 670.982 198.847 664.9 202.828 658.819C205.561 654.637 205.561 654.637 208.35 650.371C210.779 646.659 210.779 646.659 213.258 642.872C217.921 635.591 222.368 628.174 226.816 620.76L101.471 617.775C107.239 606.239 113.808 598.406 122.548 589.237C133.258 577.801 143.541 566.237 153.325 553.983C172.08 530.692 192.579 508.741 213.736 487.615C220.7 480.64 227.332 473.474 233.904 466.13C236.236 463.525 238.567 460.921 240.969 458.237C248.423 449.842 255.815 441.394 263.188 432.928C269.41 425.848 275.714 418.847 282.028 411.851C303.259 388.498 303.258 388.497 323.25 364.1L328.286 358.131H334.256C334.998 356.457 335.741 354.784 336.506 353.06C348.675 330.59 368.125 314.377 389.747 301.531C405.822 291.927 421.408 281.568 437.04 271.262C448.425 263.786 459.754 256.432 471.69 249.864C499.739 234.136 512.85 215.093 528.021 187.651C533.867 177.437 540.838 168.038 547.724 158.513C552.528 151.619 556.791 144.513 561.071 137.283C590.057 90.9691 620.18 45.3767 650.604 0ZM679.147 617.589C665.502 617.828 665.502 617.829 663.448 638.155C663.205 640.739 662.969 643.247 662.732 645.755C660.601 667.819 658.735 689.902 657.014 712.002C656.605 717.356 656.605 717.356 656.204 722.604C654.563 743.672 653.295 764.555 653.501 785.694C653.532 787.455 653.562 789.164 653.593 790.872C646.993 790.872 646.992 790.872 632.698 794.3C612.365 799.226 591.988 803.953 571.575 808.536C568.548 809.213 565.611 809.87 562.673 810.527C556.567 811.894 550.461 813.26 544.354 814.626C528.291 818.215 512.231 821.815 496.171 825.42C489.792 826.852 483.413 828.284 477.034 829.716C472.376 830.762 472.376 830.762 467.81 831.787C459.634 833.623 451.459 835.459 443.282 837.29C433.29 839.528 423.299 841.772 413.312 844.034C409.962 844.795 406.711 845.532 403.461 846.271C400.336 846.968 397.303 847.645 394.27 848.321C390.122 849.27 390.121 849.269 386.056 850.199C376.394 852.382 370.313 854.917 361.119 859.514H722.234C719.505 837.677 716.766 815.84 714.087 793.997C712.67 782.371 711.245 770.746 709.813 759.122C709.041 752.856 708.269 746.59 707.499 740.323C702.512 699.249 697.169 658.428 689.406 617.775L679.147 617.589ZM513.324 334.256C509.874 334.256 509.874 334.255 484.139 348.524C480.625 350.485 477.11 352.444 473.594 354.4C468.322 357.297 468.322 357.297 463.154 360.136C459.74 362.038 456.426 363.886 453.111 365.732C449.975 367.471 446.93 369.159 443.886 370.847C428.851 380.414 422.86 387.419 418.875 405.173C418.41 407.463 417.959 409.686 417.508 411.909C415.929 419.145 414.363 426.38 412.854 433.631C411.817 438.621 410.761 443.608 409.687 448.591C404.795 471.096 399.953 493.463 396.932 516.306C402.88 512.29 408.815 508.271 414.838 504.368C430.278 495.653 443.297 485.727 456.247 473.591C464.955 465.253 473.27 457.478 483.247 450.648C491.314 445.239 491.314 445.239 498.601 439.457C508.896 427.476 508.896 427.476 510.094 397.361C510.271 392.745 510.509 388.132 510.784 383.521C511.827 367.104 512.658 350.692 513.324 334.256Z" fill="#FFB71B"/>
</svg>
