<svg width="44" height="41" viewBox="0 0 44 41" fill="none" xmlns="http://www.w3.org/2000/svg">
<g filter="url(#filter0_d_586_2882)">
<path d="M3.28979 19.0748C3.28979 20.9117 4.89129 22.3589 6.68666 22.7475C11.1181 23.7068 16.8628 27.2561 19.1918 36.2564C19.5743 37.7348 20.8578 38.8474 22.3849 38.8474L29.053 38.8474C30.8945 38.8474 32.3409 37.2608 31.9872 35.4536C30.7815 29.2938 27.6756 21.3363 21.5893 15.9716C17.7463 12.5843 12.715 10.2306 6.22348 10.016C4.57477 9.96151 3.28979 11.3471 3.28979 12.9967L3.28979 19.0748Z" fill="url(#paint0_linear_586_2882)"/>
</g>
<g filter="url(#filter1_d_586_2882)">
<path d="M7.28979 14.0748C7.28979 15.9117 8.89129 17.3589 10.6867 17.7475C15.1181 18.7068 20.8628 22.2561 23.1918 31.2564C23.5743 32.7348 24.8578 33.8474 26.3849 33.8474L33.053 33.8474C34.8945 33.8474 36.3409 32.2608 35.9872 30.4536C34.7815 24.2938 31.6756 16.3363 25.5893 10.9716C21.7463 7.58427 16.715 5.23062 10.2235 5.01601C8.57477 4.96151 7.28979 6.34713 7.28979 7.99673L7.28979 14.0748Z" fill="#CCCCCC"/>
</g>
<g filter="url(#filter2_d_586_2882)">
<path d="M11.2898 9.07479C11.2898 10.9117 12.8913 12.3589 14.6867 12.7475C19.1181 13.7068 24.8628 17.2561 27.1918 26.2564C27.5743 27.7348 28.8578 28.8474 30.3849 28.8474L37.053 28.8474C38.8945 28.8474 40.3409 27.2608 39.9872 25.4536C38.7815 19.2938 35.6756 11.3363 29.5893 5.97163C25.7463 2.58427 20.715 0.230621 14.2235 0.0160122C12.5748 -0.0384941 11.2898 1.34713 11.2898 2.99673L11.2898 9.07479Z" fill="url(#paint1_linear_586_2882)"/>
</g>
<defs>
<filter id="filter0_d_586_2882" x="3.98159e-05" y="5.07983" width="35.3305" height="35.4124" filterUnits="userSpaceOnUse" color-interpolation-filters="sRGB">
<feFlood flood-opacity="0" result="BackgroundImageFix"/>
<feColorMatrix in="SourceAlpha" type="matrix" values="0 0 0 0 0 0 0 0 0 0 0 0 0 0 0 0 0 0 127 0" result="hardAlpha"/>
<feOffset dy="-1.64488"/>
<feGaussianBlur stdDeviation="1.64488"/>
<feComposite in2="hardAlpha" operator="out"/>
<feColorMatrix type="matrix" values="0 0 0 0 0 0 0 0 0 0 0 0 0 0 0 0 0 0 0.25 0"/>
<feBlend mode="normal" in2="BackgroundImageFix" result="effect1_dropShadow_586_2882"/>
<feBlend mode="normal" in="SourceGraphic" in2="effect1_dropShadow_586_2882" result="shape"/>
</filter>
<filter id="filter1_d_586_2882" x="4.16591" y="5.01447" width="34.9988" height="35.0807" filterUnits="userSpaceOnUse" color-interpolation-filters="sRGB">
<feFlood flood-opacity="0" result="BackgroundImageFix"/>
<feColorMatrix in="SourceAlpha" type="matrix" values="0 0 0 0 0 0 0 0 0 0 0 0 0 0 0 0 0 0 127 0" result="hardAlpha"/>
<feOffset dy="3.12389"/>
<feGaussianBlur stdDeviation="1.56194"/>
<feComposite in2="hardAlpha" operator="out"/>
<feColorMatrix type="matrix" values="0 0 0 0 0 0 0 0 0 0 0 0 0 0 0 0 0 0 0.25 0"/>
<feBlend mode="normal" in2="BackgroundImageFix" result="effect1_dropShadow_586_2882"/>
<feBlend mode="normal" in="SourceGraphic" in2="effect1_dropShadow_586_2882" result="shape"/>
</filter>
<filter id="filter2_d_586_2882" x="8.16591" y="0.0144653" width="34.9988" height="35.0807" filterUnits="userSpaceOnUse" color-interpolation-filters="sRGB">
<feFlood flood-opacity="0" result="BackgroundImageFix"/>
<feColorMatrix in="SourceAlpha" type="matrix" values="0 0 0 0 0 0 0 0 0 0 0 0 0 0 0 0 0 0 127 0" result="hardAlpha"/>
<feOffset dy="3.12389"/>
<feGaussianBlur stdDeviation="1.56194"/>
<feComposite in2="hardAlpha" operator="out"/>
<feColorMatrix type="matrix" values="0 0 0 0 0 0 0 0 0 0 0 0 0 0 0 0 0 0 0.25 0"/>
<feBlend mode="normal" in2="BackgroundImageFix" result="effect1_dropShadow_586_2882"/>
<feBlend mode="normal" in="SourceGraphic" in2="effect1_dropShadow_586_2882" result="shape"/>
</filter>
<linearGradient id="paint0_linear_586_2882" x1="25.0844" y1="36.3803" x2="23.8508" y2="8.41737" gradientUnits="userSpaceOnUse">
<stop stop-color="#50C878"/>
<stop offset="1" stop-color="#FBEC5D"/>
</linearGradient>
<linearGradient id="paint1_linear_586_2882" x1="26.0937" y1="-4.11219" x2="25.8881" y2="28.8474" gradientUnits="userSpaceOnUse">
<stop stop-color="#00A8E8"/>
<stop offset="1" stop-color="#50C878"/>
</linearGradient>
</defs>
</svg>
